<?xml version="1.0" standalone="no"?>
<!DOCTYPE svg PUBLIC "-//W3C//DTD SVG 20010904//EN"
 "http://www.w3.org/TR/2001/REC-SVG-20010904/DTD/svg10.dtd">
<svg version="1.0" xmlns="http://www.w3.org/2000/svg"
 width="500.000000pt" height="500.000000pt" viewBox="0 0 500.000000 500.000000"
 preserveAspectRatio="xMidYMid meet">
<metadata>
Created by potrace 1.16, written by Peter Selinger 2001-2019
</metadata>
<g transform="translate(0.000000,500.000000) scale(0.100000,-0.100000)"
fill="#000000" stroke="none">
<path d="M2175 4990 c-33 -4 -91 -15 -128 -24 -38 -9 -78 -16 -90 -16 -22 0
-128 -31 -297 -87 -115 -38 -395 -171 -479 -227 -29 -20 -55 -36 -57 -36 -12
0 -170 -121 -277 -212 -104 -88 -242 -235 -323 -343 -64 -85 -124 -169 -124
-175 0 -4 -18 -34 -39 -66 -46 -70 -148 -272 -183 -364 -70 -182 -106 -308
-139 -490 -6 -30 -15 -75 -21 -100 -16 -73 -12 -598 6 -705 28 -166 45 -250
69 -335 22 -75 38 -120 103 -293 14 -37 123 -254 147 -291 139 -221 243 -351
418 -522 166 -161 249 -225 479 -369 45 -28 246 -124 330 -157 140 -56 201
-78 218 -78 9 0 45 -9 80 -20 34 -11 104 -27 155 -36 50 -8 115 -20 142 -26
79 -16 517 -22 615 -8 152 20 292 49 437 90 158 44 446 176 621 284 440 273
827 739 996 1201 20 55 43 114 51 130 20 43 61 210 85 348 19 105 21 152 20
410 -2 262 -6 335 -24 457 -3 19 -10 69 -16 110 -26 183 -164 540 -285 735
-133 215 -270 389 -411 525 -93 90 -147 136 -276 236 -129 100 -344 218 -519
284 -46 18 -109 43 -140 56 -31 13 -65 24 -75 24 -11 0 -39 7 -64 16 -25 9
-108 30 -185 47 -137 30 -146 30 -450 33 -170 1 -337 -1 -370 -6z m376 -212
c71 -105 193 -219 284 -264 l79 -39 210 -5 211 -6 70 -32 c125 -59 188 -137
279 -346 117 -271 209 -361 428 -418 46 -12 87 -25 92 -29 4 -4 -24 -63 -63
-131 -78 -137 -101 -208 -101 -313 1 -65 12 -117 75 -340 24 -84 17 -231 -15
-300 -40 -88 -97 -159 -228 -282 -75 -71 -140 -143 -160 -175 -41 -69 -66
-181 -58 -263 8 -71 45 -257 55 -274 8 -12 116 31 554 219 86 37 159 64 162
60 3 -4 -4 -19 -15 -33 -27 -34 -290 -457 -290 -466 0 -4 73 -42 162 -83 89
-42 164 -80 166 -86 4 -12 -224 -129 -368 -188 -256 -105 -617 -215 -655 -200
-14 5 -50 108 -60 175 l-7 43 -42 -5 c-22 -3 -108 -17 -191 -31 -306 -54 -615
-70 -885 -46 -121 11 -437 55 -505 70 -87 20 -92 17 -104 -55 -15 -83 -45
-155 -66 -155 -34 0 -265 60 -365 95 -248 86 -637 262 -647 292 -2 6 69 43
158 84 88 41 163 79 165 85 4 9 -210 361 -282 464 -13 19 -20 36 -15 38 7 2
163 -62 594 -245 85 -37 110 -44 117 -33 18 29 53 230 54 305 0 98 -29 200
-78 266 -19 25 -74 81 -123 125 -123 110 -188 187 -231 274 -37 73 -37 76 -37
195 0 108 3 130 32 216 42 126 57 216 50 303 -6 87 -23 129 -105 274 -36 62
-62 115 -59 118 3 3 44 16 91 29 121 33 187 66 247 122 73 68 104 117 179 283
83 184 107 225 168 282 102 96 177 118 403 118 139 0 178 3 232 20 107 33 218
128 333 285 26 36 51 65 56 65 4 0 26 -28 49 -62z"/>
<path d="M2441 4678 c-75 -110 -176 -208 -259 -249 l-67 -33 -200 -6 -200 -6
-63 -33 c-115 -58 -171 -130 -249 -320 -112 -271 -201 -358 -428 -416 -38 -10
-71 -19 -73 -20 -1 -1 25 -51 58 -111 94 -170 105 -202 104 -319 -1 -86 -6
-117 -40 -225 -34 -112 -38 -136 -38 -230 0 -92 3 -112 26 -162 43 -93 84
-146 218 -278 163 -161 182 -197 190 -354 l5 -110 146 -37 c164 -41 397 -83
569 -101 152 -16 565 -16 710 1 220 24 509 78 676 126 l51 15 5 107 c7 156 26
191 198 363 249 249 284 364 199 655 -34 118 -41 155 -42 235 -1 113 7 138 99
303 37 65 64 121 61 123 -3 3 -41 15 -84 26 -217 55 -306 147 -427 442 -67
161 -135 243 -246 294 -51 23 -71 26 -250 32 -216 8 -249 15 -331 75 -63 47
-167 160 -215 235 -22 33 -41 60 -44 60 -3 -1 -30 -37 -59 -82z m93 -123 c15
-25 62 -82 103 -125 58 -62 92 -88 150 -117 l76 -37 186 -6 c174 -5 190 -7
241 -32 104 -50 159 -118 231 -288 60 -140 131 -254 184 -294 46 -36 123 -71
202 -92 36 -10 67 -23 70 -30 3 -7 -11 -40 -31 -72 -20 -33 -50 -90 -68 -128
-31 -65 -33 -75 -33 -179 0 -99 4 -122 38 -229 45 -143 49 -224 15 -313 -34
-93 -63 -131 -198 -263 -135 -132 -168 -182 -189 -278 -6 -29 -11 -75 -11
-102 0 -55 -3 -57 -60 -40 -67 21 -195 40 -261 40 -129 0 -215 -32 -444 -164
-107 -62 -169 -79 -270 -74 -96 5 -148 24 -309 114 -181 101 -237 118 -376
118 -89 0 -132 -4 -193 -22 -42 -12 -81 -22 -86 -22 -5 0 -10 39 -13 88 -6
136 -30 178 -191 337 -141 140 -183 200 -212 311 -20 74 -14 123 33 284 30
104 36 141 37 220 0 90 -2 100 -38 174 -21 44 -54 106 -74 139 -19 32 -31 62
-27 66 5 4 39 16 75 25 94 25 161 58 215 108 63 58 103 122 160 258 58 138
113 223 177 271 73 55 103 61 307 68 l185 6 70 34 c78 39 174 129 244 229 24
34 47 62 50 62 3 0 19 -20 35 -45z"/>
<path d="M2459 4448 c-59 -93 -165 -195 -238 -230 -65 -33 -68 -33 -241 -38
-167 -5 -178 -6 -233 -34 -89 -43 -131 -94 -199 -236 -89 -189 -99 -209 -147
-262 -57 -64 -134 -103 -268 -138 -24 -6 -43 -15 -43 -21 0 -5 25 -53 55 -106
77 -133 89 -175 82 -281 -4 -49 -17 -120 -31 -162 -42 -129 -50 -191 -36 -262
21 -109 61 -170 205 -313 72 -71 139 -147 149 -168 22 -47 40 -159 33 -204 -5
-29 -3 -33 11 -29 109 34 204 48 292 43 115 -6 185 -30 338 -115 137 -77 211
-102 300 -102 94 0 144 17 287 99 160 93 215 112 340 118 93 5 202 -10 322
-43 22 -6 23 -4 17 37 -7 52 8 145 33 197 9 20 76 96 148 167 139 139 174 190
201 295 20 79 13 141 -29 270 -27 81 -31 110 -32 200 l0 105 51 95 c28 52 59
110 70 128 23 39 19 43 -74 67 -175 44 -250 118 -346 340 -74 173 -119 230
-226 286 -41 21 -61 24 -225 29 -172 5 -182 6 -238 34 -73 36 -167 123 -232
215 -28 38 -53 70 -56 71 -3 0 -21 -24 -40 -52z m60 -646 c38 -75 36 -136 -6
-213 -2 -4 5 -9 16 -12 40 -10 55 -138 17 -145 -16 -3 -18 0 -13 24 5 28 4 29
-39 30 -42 1 -44 0 -44 -29 0 -26 -2 -28 -16 -16 -26 22 -12 108 22 135 24 19
25 23 9 31 -24 14 -30 82 -12 139 8 27 18 62 21 77 8 34 20 28 45 -21z m-288
-298 c151 -61 249 -107 249 -118 0 -6 -24 -17 -53 -24 -47 -11 -60 -10 -108 7
-94 33 -283 119 -287 130 -2 6 9 13 25 17 15 3 33 7 38 9 29 10 78 2 136 -21z
m719 -1 l24 -16 -39 -12 c-22 -7 -78 -30 -125 -52 -154 -72 -181 -78 -245 -63
-31 7 -58 17 -61 21 -5 9 34 28 206 101 102 43 121 48 165 43 28 -4 61 -13 75
-22z m-829 -72 c57 -26 133 -59 169 -71 36 -13 70 -27 75 -31 6 -5 9 -154 7
-423 -2 -359 -4 -416 -17 -416 -18 0 -324 126 -342 142 -9 7 -13 43 -13 128 0
137 12 720 15 720 1 0 49 -22 106 -49z m863 -370 c3 -224 4 -415 1 -424 -4 -8
-14 -17 -23 -20 -9 -3 -80 -32 -157 -65 -77 -32 -150 -62 -162 -66 l-23 -7 0
424 0 424 38 11 c20 7 96 38 167 71 72 32 135 59 141 60 7 1 13 -123 18 -408z
m-502 185 c-4 -113 -5 -115 -69 -116 -22 0 -23 3 -23 100 0 109 5 119 65 120
l30 0 -3 -104z m87 93 l31 -11 0 -99 0 -99 -27 0 c-72 0 -73 2 -73 116 0 115
1 117 69 93z m-89 -423 c0 -110 -3 -203 -6 -208 -3 -4 -26 -8 -51 -8 l-46 0 7
53 c3 28 6 120 6 204 l0 152 33 4 c62 8 59 19 57 -197z m117 190 c1 -1 3 -94
3 -206 l2 -205 -35 1 c-70 2 -67 -8 -67 218 l0 206 48 -7 c26 -3 48 -6 49 -7z
m-111 -442 c-3 -9 -6 -47 -6 -85 l0 -70 -35 -15 c-64 -27 -66 -25 -63 78 3
101 6 104 82 107 22 1 27 -3 22 -15z m115 0 c4 -2 6 -44 6 -94 0 -100 1 -99
-68 -78 l-39 11 0 89 0 89 48 -7 c26 -3 50 -8 53 -10z"/>
<path d="M690 1726 c0 -3 16 -27 36 -53 67 -88 224 -329 224 -345 0 -14 -36
-33 -233 -122 -43 -20 -76 -40 -73 -45 17 -27 360 -172 556 -236 128 -41 255
-64 270 -49 7 7 -16 46 -70 119 -44 59 -80 111 -80 114 0 3 -3 83 -6 176 -4
108 -10 174 -17 181 -9 9 -406 183 -594 261 -7 3 -13 2 -13 -1z"/>
<path d="M1381 1458 c-1 -150 2 -278 7 -285 15 -24 287 -104 472 -138 231 -43
310 -50 635 -49 315 0 426 8 625 45 113 21 318 71 395 97 l80 27 9 283 c4 156
6 285 4 287 -2 2 -42 -7 -88 -21 -103 -30 -336 -77 -483 -99 -196 -28 -375
-38 -622 -32 -329 8 -570 42 -892 127 -62 17 -119 30 -127 30 -12 0 -14 -40
-15 -272z"/>
<path d="M4010 1602 c-162 -70 -301 -131 -307 -135 -9 -6 -13 -46 -13 -141 0
-208 -1 -212 -91 -334 -43 -58 -76 -109 -73 -114 12 -19 108 -4 254 39 198 59
581 226 570 248 -2 6 -68 38 -145 73 -77 35 -144 67 -148 72 -5 4 -6 17 -2 29
8 25 101 169 191 292 36 50 64 93 62 94 -2 2 -136 -54 -298 -123z"/>
</g>
</svg>
